# AST/ASF file generated using VICON BodyLanguage
# -----------------------------------------------
:version 1.10
:name VICON
:units
  mass 1.0
  length 0.45
  angle deg
:documentation
   .ast/.asf automatically generated from VICON data using
   VICON BodyBuilder and BodyLanguage model FoxedUp or BRILLIANT.MOD
:root
   order TX TY TZ RX RY RZ
   axis XYZ
   position 0 0 0  
   orientation 0 0 0 
:bonedata
  begin
     id 1 
     name lhipjoint
     direction 0.64773 -0.699417 0.302095 
     length 2.48597 
     axis 0 0 0  XYZ
  end
  begin
     id 2 
     name lfemur
     direction 0.34202 -0.939693 0  
     length 6.71947  
     axis 0 0 20  XYZ
    dof rx ry rz
    limits (-160.0 20.0)
           (-70.0 70.0)
           (-60.0 70.0)
  end
  begin
     id 3 
     name ltibia
     direction 0.34202 -0.939693 0   
     length 8.08777   
     axis 0 0 20   XYZ
    dof rx
    limits (-10.0 170.0)
  end
  begin
     id 4 
     name lfoot
     direction 0.0808503 -0.222134 0.971658   
     length 2.08264   
     axis -90 7.62852e-016 20   XYZ
    dof rx rz
    limits (-45.0 90.0)
           (-70.0 20.0)
  end
  begin
     id 5 
     name ltoes
     direction 1.53502e-011 -4.22007e-011 1   
     length 1.04662   
     axis -90 7.62852e-016 20   XYZ
    dof rx
    limits (-90.0 20.0)
  end
  begin
     id 6 
     name rhipjoint
     direction -0.610924 -0.726792 0.313919   
     length 2.39233  
     axis 0 0 0  XYZ 
  end
  begin
     id 7 
     name rfemur
     direction -0.34202 -0.939693 0   
     length 6.96955   
     axis 0 0 -20   XYZ
    dof rx ry rz
    limits (-160.0 20.0)
           (-70.0 70.0)
           (-70.0 60.0)
  end
  begin
     id 8 
     name rtibia
     direction -0.34202 -0.939693 0   
     length 8.19584   
     axis 0 0 -20   XYZ
    dof rx
    limits (-10.0 170.0)
 end
 begin
     id 9 
     name rfoot
     direction -0.077777 -0.213691 0.9738   
     length 2.07539  
     axis -90 -7.62852e-016 -20   XYZ
    dof rx rz
    limits (-45.0 90.0)
           (-20.0 70.0)
  end
  begin
     id 10 
     name rtoes
     direction -1.53558e-011 -4.22006e-011 1   
     length 1.04381   
     axis -90 -7.62852e-016 -20   XYZ
    dof rx
    limits (-90.0 20.0)
  end
  begin
     id 11 
     name lowerback
     direction -0.00971646 0.996074 0.0879841   
     length 1.67643   
     axis 0 0 0   XYZ
    dof rx ry rz
    limits (-20.0 45.0)
           (-30.0 30.0)
           (-30.0 30.0)
  end
  begin
     id 12 
     name upperback
     direction 0.0127391 0.991676 0.128127   
     length 1.63741   
     axis 0 0 0   XYZ
    dof rx ry rz
    limits (-20.0 45.0)
           (-30.0 30.0)
           (-30.0 30.0)
  end
  begin
     id 13 
     name thorax
     direction 0.0167583 0.996049 0.0872067   
     length 1.65931   
     axis 0 0 0   XYZ
    dof rx ry rz
    limits (-20.0 45.0)
           (-30.0 30.0)
           (-30.0 30.0)
  end
  begin
     id 14 
     name lowerneck
     direction -0.0317829 0.998312 0.0486079   
     length 1.79021   
     axis 0 0 0   XYZ
    dof rx ry rz
    limits (-20.0 45.0)
           (-30.0 30.0)
           (-30.0 30.0)
  end
  begin
     id 15 
     name upperneck
     direction 0.0896851 0.972452 -0.215159   
     length 1.78797   
     axis 0 0 0   XYZ
    dof rx ry rz
    limits (-20.0 45.0)
           (-30.0 30.0)
           (-30.0 30.0)
  end
  begin
     id 16
     name head
     direction 0.0310949 0.996503 -0.0775582  
     length 1.81549  
     axis 0 0 0   XYZ
    dof rx ry rz
    limits (-20.0 45.0)
           (-30.0 30.0)
           (-30.0 30.0)
  end
  begin
     id 17 
     name lclavicle
     direction 0.853638 0.502051 -0.138733  
     length 3.31627  
     axis 0 0 0   XYZ
    dof ry rz
    limits (-20.0 10.0)
           (0.0 20.0)
  end
  begin
     id 18 
     name lhumerus
     direction 1 -4.48962e-011 -1.41788e-018   
     length 5.54893   
     axis 180 -30 -90   XYZ
    dof rx ry rz
    limits (-60.0 90.0)
           (-90.0 90.0)
           (-90.0 90.0)
  end
  begin
     id 19
     name lradius
     direction 1 -4.48962e-011 -4.95754e-027   
     length 3.02898   
     axis 180 -30 -90   XYZ
    dof rx
    limits (-10.0 170.0)
  end
  begin
     id 20
     name lwrist
     direction 1 -4.48952e-011 -1.03764e-026   
     length 1.51449   
     axis 9.09556e-015 90 90   XYZ
    dof ry
    limits (-180.0 0.0)
 end
  begin
     id 21 
     name lhand
     direction 1 -4.4902e-011 -2.07528e-026   
     length 0.640951   
     axis 1.3242e-014 90 90   XYZ
    dof rx rz
    limits (-90.0 90.0)
           (-45.0 45.0)
  end
  begin
     id 22 
     name lfingers
     direction 1 -4.49014e-011 -4.15056e-026   
     length 0.516751   
     axis 2.64841e-014 90 90   XYZ
    dof rx
    limits (0.0 90.0)
  end
  begin
     id 23
     name lthumb
     direction 0.707107 -6.35008e-011 0.707107   
     length 0.741954   
     axis -90 45 2.85299e-015   XYZ
    dof rx rz
    limits (-45.0 45.0)
           (-45.0 45.0)
  end
  begin
     id 24 
     name rclavicle
     direction -0.888531 0.455324 -0.0565039   
     length 3.20126  
     axis 0 0 0   XYZ 
    dof ry rz
    limits (-10.0 20.0)
           (-20.0 0.0)
  end
  begin
     id 25 
     name rhumerus
     direction -1 -4.48946e-011 -8.98298e-028  
     length 5.3519   
     axis 180 30 90   XYZ
    dof rx ry rz
    limits (-90.0 60.0)
           (-90.0 90.0)
           (-90.0 90.0)
  end
  begin
     id 26 
     name rradius
     direction -1 -4.4899e-011 -3.18779e-027   
     length 3.02531   
     axis 180 30 90   XYZ
    dof rx
    limits (-10.0 170.0)
  end
  begin
     id 27 
     name rwrist
     direction -1 -4.4897e-011 -1.03764e-026   
     length 1.51266   
     axis 9.09556e-015 -90 -90   XYZ
    dof ry
    limits (-180.0 0.0)
  end
  begin
     id 28
     name rhand
     direction -1 -4.48941e-011 -2.07528e-026   
     length 0.78389   
     axis 1.3242e-014 -90 -90   XYZ
    dof rx rz
    limits (-90.0 90.0)
           (-45.0 45.0)
  end
  begin
     id 29
     name rfingers
     direction -1 -4.49012e-011 -4.15056e-026   
     length 0.631992   
     axis 2.64841e-014 -90 -90   XYZ
    dof rx
    limits (0.0 90.0)
  end
  begin
     id 30
     name rthumb
     direction -0.707107 -6.3496e-011 0.707107   
     length 0.907418   
     axis -90 -45 -2.85299e-015   XYZ
    dof rx rz
    limits (-45.0 45.0)
           (-45.0 45.0)
  end
:hierarchy
  begin
    root lhipjoint rhipjoint lowerback
    lhipjoint lfemur
    lfemur ltibia
    ltibia lfoot
    lfoot ltoes
    rhipjoint rfemur
    rfemur rtibia
    rtibia rfoot
    rfoot rtoes
    lowerback upperback
    upperback thorax
    thorax lowerneck lclavicle rclavicle
    lowerneck upperneck
    upperneck head
    lclavicle lhumerus
    lhumerus lradius
    lradius lwrist
    lwrist lhand lthumb
    lhand lfingers
    rclavicle rhumerus
    rhumerus rradius
    rradius rwrist
    rwrist rhand rthumb
    rhand rfingers
  end

#!OML:ASF E:\Style3\Style3.ASF
:FULLY-SPECIFIED
:DEGREES
623
root 0.0595705 17.8096 0.617221 -2.25294 87.0741 344.411
lowerback -9.8566 -2.05292 -1.09357
upperback -9.8922 -2.12782 1.80716
thorax -4.71771 -0.727885 2.36057
lowerneck -12.2711 -0.627357 -4.15328
upperneck 18.2805 -1.10112 6.28488
head 7.70631 -0.144146 2.66396
rclavicle -1.46107e-014 -7.35503e-015
rhumerus -57.3017 51.2217 -108.999
rradius 71.1959
rwrist 10.1782
rhand -4.03288 24.632
rfingers 7.12502
rthumb 21.7224 -4.1692
lclavicle -1.46107e-014 -7.35503e-015
lhumerus -15.3589 -32.6678 64.8629
lradius 58.1596
lwrist 12.6064
lhand 11.0667 27.4369
lfingers 7.12502
lthumb 36.1373 53.7195
rfemur -14.1581 10.8563 17.636
rtibia 16.666
rfoot -15.1085 -18.0836
rtoes -17.5446
lfemur -4.16699 -20.2624 -14.2971
ltibia 3.18055e-015
lfoot -12.0954 24.1829
ltoes -7.34128
624
root 0.0549588 17.8105 0.622133 -2.85587 86.9976 343.82
lowerback -9.84844 -1.96808 -1.25471
upperback -9.82923 -2.01002 1.82828
thorax -4.65423 -0.661437 2.47886
lowerneck -12.3349 -0.735648 -4.19859
upperneck 18.1463 -1.2297 6.2388
head 7.6812 -0.215002 2.64102
rclavicle -2.12203e-014 3.18055e-015
rhumerus -56.8744 51.1816 -109.953
rradius 70.1985
rwrist 10.7829
rhand -3.18523 24.3313
rfingers 7.12502
rthumb 22.5362 -4.37351
lclavicle -2.12203e-014 3.18055e-015
lhumerus -16.8174 -32.8746 66.88
lradius 58.8082
lwrist 12.9818
lhand 12.7915 27.9446
lfingers 7.12502
lthumb 37.769 53.8064
rfemur -14.1527 11.0127 17.6916
rtibia 16.6631
rfoot -15.0496 -18.2196
rtoes -17.802
lfemur -4.14164 -20.186 -14.2493
ltibia 9.54166e-015
lfoot -12.1821 24.1599
ltoes -7.24887
625
root 0.0478545 17.8111 0.619411 -3.50804 87.0469 343.059
lowerback -9.88063 -1.90795 -1.28603
upperback -9.82651 -1.92668 1.82378
thorax -4.63721 -0.617446 2.49573
lowerneck -12.4298 -0.847911 -4.32249
upperneck 18.0764 -1.36294 6.26997
head 7.68396 -0.284597 2.65773
rclavicle 3.32964e-015 -9.54166e-015
rhumerus -56.6678 51.3365 -111.15
rradius 69.4571
rwrist 11.6326
rhand -2.55728 23.6352
rfingers 7.12502
rthumb 23.1388 -4.99522
lclavicle 3.32964e-015 -9.54166e-015
lhumerus -18.3411 -32.9947 68.9458
lradius 59.4635
lwrist 13.3486
lhand 14.0578 28.5176
lfingers 7.12502
lthumb 38.9641 54.0479
rfemur -14.2902 10.9212 17.698
rtibia 16.6494
rfoot -14.9274 -18.2261
rtoes -18.005
lfemur -4.31872 -20.2266 -14.1606
ltibia 3.18055e-015
lfoot -12.0374 24.1735
ltoes -7.2039
626
root 0.03813 17.8137 0.611528 -3.01165 87.1368 343.47
lowerback -9.84049 -1.82243 -1.2835
upperback -9.8146 -1.81536 1.77556
thorax -4.65371 -0.563514 2.45131
lowerneck -12.5722 -0.990379 -4.50341
upperneck 18.0193 -1.52979 6.32489
head 7.70222 -0.371185 2.68871
rclavicle -1.44616e-014 1.86858e-014
rhumerus -56.2792 51.4567 -112.143
rradius 68.8807
rwrist 12.4078
rhand -1.24873 23.3465
rfingers 7.12502
rthumb 24.3938 -5.12071
lclavicle -1.44616e-014 1.86858e-014
lhumerus -19.8343 -33.0122 71.0514
lradius 60.2077
lwrist 13.8253
lhand 14.9913 28.9627
lfingers 7.12502
lthumb 39.8434 54.2358
rfemur -14.4217 10.7504 17.6115
rtibia 16.6444
rfoot -14.9109 -18.1046
rtoes -17.731
lfemur -4.50159 -20.3104 -14.1639
ltibia -9.54166e-015
lfoot -11.7445 24.215
ltoes -7.4162
627
root 0.0291058 17.8131 0.602562 -3.21665 87.1833 343.315
lowerback -9.63239 -1.70429 -1.22737
upperback -9.79569 -1.66948 1.69858
thorax -4.75864 -0.497041 2.35241
lowerneck -12.6824 -1.12646 -4.52773
upperneck 17.9686 -1.70434 6.29731
head 7.71592 -0.458509 2.66494
rclavicle 9.54166e-015 -4.96962e-015
rhumerus -55.9796 51.6842 -113.255
rradius 68.4445
rwrist 13.1584
rhand 0.2775 23.4798
rfingers 7.12502
rthumb 25.8561 -4.78246
lclavicle 9.54166e-015 -4.96962e-015
lhumerus -21.3849 -32.967 73.0904
lradius 60.9039
lwrist 14.1994
lhand 16.3717 28.9971
lfingers 7.12502
lthumb 41.1412 53.8685
rfemur -14.4106 10.7273 17.57
rtibia 16.6699
rfoot -15.0119 -18.0179
rtoes -17.2613
lfemur -4.50683 -20.3669 -14.1969
ltibia 4.77083e-015
lfoot -11.7197 24.207
ltoes -7.80629
628
root 0.0207478 17.8129 0.593712 -2.76642 87.3666 343.848
lowerback -9.38055 -1.64162 -1.24893
upperback -9.76916 -1.59449 1.63072
thorax -4.87346 -0.461747 2.30286
lowerneck -12.7733 -1.29123 -4.6013
upperneck 17.8682 -1.90835 6.27242
head 7.71203 -0.564115 2.64625
rclavicle -5.41688e-015 -6.75868e-015
rhumerus -55.9389 52.2587 -114.689
rradius 68.1265
rwrist 13.9312
rhand 1.25786 23.3285
rfingers 7.12502
rthumb 26.7946 -4.79348
lclavicle -5.41688e-015 -6.75868e-015
lhumerus -22.9341 -32.8989 75.1218
lradius 61.6984
lwrist 14.7412
lhand 17.5478 29.5589
lfingers 7.12502
lthumb 42.2442 54.0666
rfemur -14.3306 10.6861 17.4901
rtibia 16.6758
rfoot -15.0566 -18.1327
rtoes -17.061
lfemur -4.49738 -20.5612 -14.2802
ltibia -1.59028e-015
lfoot -11.6566 24.2382
ltoes -8.53991
629
root 0.0165344 17.8153 0.587852 -0.543184 87.5196 346.011
lowerback -9.36536 -1.56258 -1.37082
upperback -9.75063 -1.48657 1.53607
thorax -4.86652 -0.40419 2.2779
lowerneck -12.8555 -1.47385 -4.77716
upperneck 17.7769 -2.14812 6.4181
head 7.71455 -0.676881 2.69788
rclavicle -2.59911e-014 -1.78906e-015
rhumerus -55.8656 52.9196 -116.162
rradius 67.8869
rwrist 14.6256
rhand 1.88657 23.1718
rfingers 7.12502
rthumb 27.3961 -4.85656
lclavicle -2.59911e-014 -1.78906e-015
lhumerus -24.4129 -32.9185 77.0546
lradius 62.4718
lwrist 15.386
lhand 18.4828 29.9642
lfingers 7.12502
lthumb 43.1191 54.1679
rfemur -14.3932 10.7337 17.3115
rtibia 16.6835
rfoot -15.1891 -18.2662
rtoes -16.4903
lfemur -4.62376 -20.7088 -14.3727
ltibia 1.74931e-014
lfoot -11.5738 24.2482
ltoes -8.57688
630
root 0.0127468 17.8176 0.580903 -0.879213 87.4763 345.607
lowerback -9.43352 -1.42587 -1.35175
upperback -9.70033 -1.30855 1.48023
thorax -4.78505 -0.320081 2.21626
lowerneck -12.9621 -1.65691 -4.86632
upperneck 17.7286 -2.39293 6.49234
head 7.73495 -0.791956 2.71102
rclavicle -3.18055e-015 -2.16675e-014
rhumerus -55.6722 53.6809 -117.541
rradius 67.7321
rwrist 15.3745
rhand 2.49709 23.4025
rfingers 7.12502
rthumb 27.9799 -4.53216
lclavicle -3.18055e-015 -2.16675e-014
lhumerus -25.8985 -32.9226 78.9057
lradius 63.2965
lwrist 15.9218
lhand 19.2192 30.3228
lfingers 7.12502
lthumb 43.807 54.2773
rfemur -14.4889 10.8531 17.2813
rtibia 16.6729
rfoot -15.1711 -18.2947
rtoes -16.3549
lfemur -4.71441 -20.6613 -14.3397
ltibia 3.18055e-015
lfoot -11.4591 24.2724
ltoes -8.88934
631
root 0.00487002 17.8178 0.574925 -0.36104 87.4306 346.102
lowerback -9.45066 -1.28261 -1.35961
upperback -9.6218 -1.12532 1.39153
thorax -4.70121 -0.234611 2.13667
lowerneck -13.1502 -1.87436 -4.93514
upperneck 17.7387 -2.68905 6.56808
head 7.79274 -0.927844 2.71617
rclavicle -1.49834e-014 1.03368e-014
rhumerus -55.3514 54.6582 -118.839
rradius 67.7453
rwrist 16.0066
rhand 3.08008 23.9081
rfingers 7.12502
rthumb 28.5371 -3.93429
lclavicle -1.49834e-014 1.03368e-014
lhumerus -27.3194 -33.0056 80.6736
lradius 64.1201
lwrist 16.3801
lhand 19.7438 30.7646
lfingers 7.12502
lthumb 44.2963 54.5361
rfemur -14.5515 10.9653 17.2143
rtibia 16.6368
rfoot -15.0442 -18.3314
rtoes -16.4809
lfemur -4.77656 -20.615 -14.3562
ltibia -1.59028e-015
lfoot -11.4573 24.2279
ltoes -8.85531
632
root -0.00054769 17.8194 0.570555 -1.05769 87.6718 345.352
lowerback -9.48088 -1.2478 -1.34737
upperback -9.59131 -1.08234 1.30781
thorax -4.65517 -0.217689 2.04394
lowerneck -13.2388 -2.08527 -5.05985
upperneck 17.7753 -2.97621 6.69045
head 7.84283 -1.05914 2.74733
rclavicle 5.44173e-015 6.75868e-015
rhumerus -55.0977 55.6263 -120.169
rradius 67.8494
rwrist 16.5465
rhand 3.69839 24.158
rfingers 7.12502
rthumb 29.1277 -3.58374
lclavicle 5.44173e-015 6.75868e-015
lhumerus -28.8751 -33.0716 82.4466
lradius 65.0172
lwrist 16.6247
lhand 20.1922 31.1623
lfingers 7.12502
lthumb 44.7141 54.7736
rfemur -14.5612 11.1608 17.1757
rtibia 16.5893
rfoot -15.0853 -18.6756
rtoes -16.2006
lfemur -4.93799 -20.8502 -14.2799
ltibia -3.18055e-015
lfoot -11.34 24.2324
ltoes -8.84977
633
root -0.00379161 17.822 0.558914 -2.08317 88.308 344.291
lowerback -9.47362 -1.32867 -1.25848
upperback -9.55137 -1.19992 1.17568
thorax -4.61455 -0.28786 1.84953
lowerneck -13.3404 -2.30285 -5.25253
upperneck 17.7631 -3.27578 6.91315
head 7.88357 -1.1916 2.82106
rclavicle 7.60351e-015 1.09332e-014
rhumerus -54.745 56.6882 -121.39
rradius 67.9722
rwrist 16.9798
rhand 4.23141 24.1974
rfingers 7.12502
rthumb 29.6366 -3.45511
lclavicle 7.60351e-015 1.09332e-014
lhumerus -30.2786 -32.9326 84.0937
lradius 65.843
lwrist 16.3574
lhand 21.0227 31.1982
lfingers 7.12502
lthumb 45.4866 54.5035
rfemur -14.4939 11.0815 17.1014
rtibia 16.5883
rfoot -15.363 -19.0607
rtoes -15.3633
lfemur -5.1635 -21.4857 -14.2305
ltibia -1.11319e-014
lfoot -11.0903 24.3226
ltoes -9.08276
